<?xml version="1.0" encoding="UTF-8"?>
<svg version="1.1" xmlns="http://www.w3.org/2000/svg" width="206" height="193">
<path d="M0 0 C21.17106565 17.8690955 33.75579371 41.21935537 36.46923828 68.74951172 C38.42636108 95.46967437 29.4143008 120.22838081 12.46923828 140.74951172 C-2.64862569 157.93348376 -23.90017616 169.42494212 -46.53076172 172.74951172 C-60.46773272 173.49083996 -75.13840741 174.14126881 -88.53076172 169.74951172 C-89.79146484 169.35892578 -91.05216797 168.96833984 -92.35107422 168.56591797 C-113.36956245 161.63366527 -130.21788936 147.98058749 -142.53076172 129.74951172 C-143.07087891 128.98767578 -143.61099609 128.22583984 -144.16748047 127.44091797 C-147.71504561 122.06835868 -150.02297915 116.30994161 -152.28076172 110.31201172 C-152.5748291 109.53720459 -152.86889648 108.76239746 -153.171875 107.96411133 C-156.93061731 97.5530263 -157.8977663 87.46017314 -157.84326172 76.43701172 C-157.83762207 75.24293701 -157.83198242 74.0488623 -157.82617188 72.81860352 C-157.70986993 64.38325784 -157.14743479 56.81841614 -154.53076172 48.74951172 C-154.34271973 48.13672363 -154.15467773 47.52393555 -153.9609375 46.89257812 C-147.14529726 25.04674319 -133.42888948 7.48633207 -114.53076172 -5.25048828 C-113.73412109 -5.80220703 -112.93748047 -6.35392578 -112.11669922 -6.92236328 C-104.8036799 -11.66726545 -96.77648435 -14.56732353 -88.53076172 -17.25048828 C-87.48919922 -17.59466797 -86.44763672 -17.93884766 -85.37451172 -18.29345703 C-56.29429601 -26.11427262 -23.21149354 -18.96160605 0 0 Z " fill="#32ABDA" transform="translate(164.53076171875,20.25048828125)"/>
<path d="M0 0 C0.92135742 0.00757324 1.84271484 0.01514648 2.79199219 0.02294922 C17.11015905 0.36817781 28.00693767 5.95966544 37.83984375 16.2421875 C46.23644517 26.21869913 50.87460636 38.14436624 50.9375 51.125 C50.94144775 51.83253418 50.94539551 52.54006836 50.94946289 53.26904297 C50.89331769 58.3452634 50.02094379 62.5840013 48.2890625 67.375 C47.44602423 70.26541692 47.8613144 72.58340429 48.6875 75.4375 C49.821875 75.72625 50.95625 76.015 52.125 76.3125 C53.8884375 76.869375 53.8884375 76.869375 55.6875 77.4375 C56.0175 78.0975 56.3475 78.7575 56.6875 79.4375 C67.5775 79.4375 78.4675 79.4375 89.6875 79.4375 C91.09072458 86.45362288 88.40930567 89.59110081 84.6875 95.4375 C69.8509827 117.32559397 48.55564522 132.64172569 22.6875 138.4375 C7.61709649 141.28862196 -10.65924198 141.24274546 -25.3125 136.4375 C-26.57320312 136.04691406 -27.83390625 135.65632812 -29.1328125 135.25390625 C-50.14074447 128.32513519 -67.01644712 114.67212751 -79.3125 96.4375 C-79.94542969 95.52484375 -80.57835937 94.6121875 -81.23046875 93.671875 C-85.34507814 87.38226613 -85.34507814 87.38226613 -85.1875 82.8125 C-84.754375 81.636875 -84.754375 81.636875 -84.3125 80.4375 C-77.26130744 79.32673079 -70.25541132 79.03878759 -63.12475586 78.92260742 C-61.62628039 78.89089796 -60.12805846 78.84306831 -58.63061523 78.77905273 C-46.11154057 78.25324885 -46.11154057 78.25324885 -41.78344727 81.10229492 C-39.7890625 83.1953125 -39.7890625 83.1953125 -38.0246582 85.39526367 C-35.3037887 88.64067553 -31.91444348 90.13076812 -28.125 91.875 C-27.43986328 92.21208984 -26.75472656 92.54917969 -26.04882812 92.89648438 C-16.00868583 97.71845839 -2.63970446 98.26411251 8.125 95.3125 C21.77923715 90.32799474 31.35256371 82.56936791 37.828125 69.58984375 C42.08131588 58.93753387 42.83692755 45.52540579 38.5625 34.75 C36.45422145 30.44282922 33.90147831 26.63504589 30.82421875 22.9609375 C29.6875 21.4375 29.6875 21.4375 29.6875 19.4375 C29.10484375 19.15777344 28.5221875 18.87804687 27.921875 18.58984375 C25.16752426 17.16933069 22.65019086 15.47762265 20.078125 13.75390625 C10.16350591 8.29438561 -0.8379007 7.7029237 -11.796875 10.24609375 C-21.13268376 13.74097553 -28.81359418 19.88517719 -33.375 28.8125 C-37.30608637 37.62596765 -38.11955214 48.63856363 -34.8125 57.875 C-31.07427589 65.63900392 -25.21877442 72.10555439 -17.28125 75.62109375 C-9.34918589 77.80241138 -0.32336501 77.83684246 7.25 74.4375 C12.93498269 71.05335347 17.06969223 66.5324366 20.125 60.6875 C21.45642362 52.99483021 22.0383097 44.27666753 17.6875 37.4375 C13.5091369 32.81550823 9.10427059 29.92762985 2.85546875 29.03125 C-3.74194706 28.82372971 -7.67301138 29.46020571 -12.7890625 33.734375 C-16.64665384 38.04696429 -16.7895591 42.12248135 -16.70703125 47.734375 C-16.09035812 51.9595018 -14.44043255 53.60746579 -11.3125 56.4375 C-7.80223925 58.19263038 -4.02391787 57.39167658 -0.3125 56.4375 C2.46320579 54.42759852 2.46320579 54.42759852 3.6875 51.4375 C3.54134044 47.71043127 3.34538293 46.09538293 0.6875 43.4375 C-1.30071313 43.03985737 -3.30194339 42.69974651 -5.3125 42.4375 C-4.25 40.875 -4.25 40.875 -2.3125 39.4375 C2.14785162 39.4375 4.13542257 39.96943436 7.5625 42.875 C10.4975505 46.4143256 11.09892113 48.62104717 11.03125 53.2734375 C10.2385411 58.26390037 7.02241416 61.42817466 3.125 64.375 C-2.71991615 66.18161044 -8.91019732 66.72575053 -14.7265625 64.5234375 C-19.54827081 61.72431844 -23.15731807 58.08502652 -24.8828125 52.63671875 C-26.27420688 45.51530934 -26.42598791 38.46436749 -22.875 32 C-19.00591634 26.34376817 -13.79327165 22.59775722 -7.3125 20.4375 C3.47405185 19.58045275 12.07782234 19.80366057 20.671875 27.12890625 C27.09346854 33.70143468 30.86827385 42.26483031 31.3125 51.4375 C30.83188042 61.11313099 26.72231902 69.51491898 20.0625 76.46484375 C11.74825613 83.37058907 1.32658901 86.98541154 -9.4140625 86.75 C-20.6081377 85.54309162 -30.63656086 79.28636389 -37.7421875 70.7265625 C-45.52945028 59.37498044 -47.07798226 46.85708159 -45.3125 33.4375 C-41.8127048 20.6023309 -33.29267052 11.46336537 -22.09765625 4.76171875 C-14.7207031 1.25430344 -8.16179988 -0.09427822 0 0 Z " fill="#4EB3DB" transform="translate(101.3125,53.5625)"/>
<path d="M0 0 C12.89627681 9.90178529 23.56332934 23.45789848 26.5234375 39.9375 C26.83238946 44.21127403 26.84808582 48.46650102 26.8359375 52.75 C26.85205078 53.87470703 26.86816406 54.99941406 26.88476562 56.15820312 C26.88896635 63.38765514 26.89104239 71.78878256 22.10668945 77.68286133 C20.5234375 78.9375 20.5234375 78.9375 17.5234375 79.375 C14.5234375 78.9375 14.5234375 78.9375 12.5859375 77.375 C10.68107639 73.0050245 12.16595509 69.06975417 13.55078125 64.68359375 C16.89080514 51.81980696 14.2187968 38.93401222 8.3359375 27.25 C1.56949989 15.99329645 -8.14973875 7.46865522 -20.77734375 3.63671875 C-34.90638164 0.96607695 -48.75827521 1.72900387 -61.05078125 9.58203125 C-63.33482899 11.25448274 -65.40970564 13.00507285 -67.4765625 14.9375 C-68.02828125 15.44796875 -68.58 15.9584375 -69.1484375 16.484375 C-77.95122944 25.65016867 -80.31994703 35.97671926 -80.11889648 48.25927734 C-79.5879387 59.56386988 -75.45485316 68.84661249 -67.4765625 76.9375 C-59.54484101 83.65242331 -49.76444316 87.76811543 -39.30078125 87.3203125 C-28.82934437 85.90094761 -18.88926628 81.50595655 -12.1640625 73.1875 C-6.59086903 64.99071407 -4.03234801 56.87118399 -5.4765625 46.9375 C-8.1848628 37.54488406 -12.39586993 30.09891009 -20.8515625 25 C-28.17115635 21.6507313 -37.37925702 21.51358703 -45.10546875 23.671875 C-50.94932891 26.37757116 -55.69137371 31.04910128 -58.75 36.71875 C-60.69216493 42.64966227 -60.51981406 50.09139246 -58.2890625 55.9375 C-55.53416542 60.49732965 -52.46160899 63.93110718 -47.4765625 65.9375 C-42.02321563 66.5989779 -36.37844471 66.87009061 -31.4140625 64.25 C-27.90961211 61.49117735 -25.85185299 59.53810455 -25.19921875 55.015625 C-24.98851654 50.53188187 -25.53781691 47.50597679 -28.4765625 43.9375 C-31.45087818 41.85547902 -33.89135617 41.64680759 -37.4765625 41.9375 C-37.8065625 42.2675 -38.1365625 42.5975 -38.4765625 42.9375 C-37.7134375 43.185 -36.9503125 43.4325 -36.1640625 43.6875 C-33.13238165 45.09758412 -31.96843062 45.95376376 -30.4765625 48.9375 C-30.54833614 52.38263487 -31.10219689 54.36035303 -32.9765625 57.25 C-36.65984353 59.7362147 -40.05041793 60.52517298 -44.4765625 59.9375 C-47.91250189 57.9549821 -50.692291 55.50604299 -52.4765625 51.9375 C-52.99232626 46.76295208 -53.11955343 42.32636042 -50.9140625 37.5625 C-44.23954764 30.37456092 -44.23954764 30.37456092 -38.63671875 29.48828125 C-31.06451611 29.21136589 -25.35820838 30.35910771 -19.7265625 35.55078125 C-14.02880024 41.72792254 -12.9815496 47.63997723 -13.17578125 55.91015625 C-13.99547259 64.16029634 -17.84999353 68.87553856 -23.96484375 74.2109375 C-31.99493975 79.73084797 -40.11347473 79.90896662 -49.4765625 78.9375 C-57.84917412 76.49729584 -64.32708982 70.77893269 -68.7890625 63.375 C-73.21424449 54.36074039 -73.85684381 44.84817019 -71.89453125 35.0234375 C-68.4803724 25.20188464 -60.77268657 18.13628388 -51.93359375 13.09375 C-42.66992126 8.73437471 -31.81704947 8.31761682 -21.9140625 10.84765625 C-18.94491883 12.02546707 -16.24000656 13.3389539 -13.4765625 14.9375 C-12.74179688 15.3603125 -12.00703125 15.783125 -11.25 16.21875 C-3.19783873 21.56613123 2.95863811 30.51265548 5.8984375 39.66015625 C8.23342364 51.90423983 7.82341542 65.49154589 1.0625 76.265625 C-0.37511234 78.23595663 -1.89253013 80.08439912 -3.4765625 81.9375 C-4.37375 83.236875 -4.37375 83.236875 -5.2890625 84.5625 C-12.31106196 92.18638512 -23.98904419 98.396364 -34.39501953 99.05981445 C-43.38635767 99.39686235 -52.12119441 99.68596993 -60.4765625 95.9375 C-61.353125 95.55851562 -62.2296875 95.17953125 -63.1328125 94.7890625 C-77.21936185 87.94363262 -84.6833927 76.93061736 -90.4765625 62.9375 C-90.86972656 61.99648437 -91.26289062 61.05546875 -91.66796875 60.0859375 C-95.32792509 45.835093 -92.74109646 29.85300044 -85.4140625 17.3125 C-76.53589068 4.35414708 -64.52636494 -5.19414921 -49.28125 -9.3984375 C-31.88622748 -12.43452973 -14.68117462 -10.22832586 0 0 Z " fill="#F9FCFD" transform="translate(136.4765625,52.0625)"/>
<path d="M0 0 C1.70736328 0.56074219 1.70736328 0.56074219 3.44921875 1.1328125 C23.77761948 8.39811075 42.57139609 22.86147272 53 42 C53 42.99 53 43.98 53 45 C46.63331116 45.29704812 40.26604367 45.54376519 33.89599609 45.75683594 C31.73279489 45.83498114 29.56996605 45.92431711 27.40771484 46.02539062 C24.28515838 46.16935358 21.16344091 46.27196769 18.0390625 46.3671875 C17.08448151 46.42002899 16.12990051 46.47287048 15.14639282 46.52731323 C8.56989012 46.67363687 4.59943262 45.16061454 -0.83552551 41.46362305 C-12.34308078 33.68218548 -28.94788473 33.00843071 -42.21923828 35.39990234 C-50.23347354 37.2883903 -57.13464688 40.88810513 -63.828125 45.64453125 C-66 47 -66 47 -69 47 C-69 46.34 -69 45.68 -69 45 C-81.87 45 -94.74 45 -108 45 C-106.29346864 39.88040592 -104.62360921 36.69810148 -101.375 32.625 C-100.92552002 32.05555664 -100.47604004 31.48611328 -100.01293945 30.89941406 C-86.92570382 14.54559327 -69.19733448 3.55915569 -49 -2 C-47.80310547 -2.33837891 -47.80310547 -2.33837891 -46.58203125 -2.68359375 C-31.29994734 -6.20649068 -14.76483479 -4.89495065 0 0 Z " fill="#56BBE2" transform="translate(131,8)"/>
<path d="M0 0 C0.92135742 0.00757324 1.84271484 0.01514648 2.79199219 0.02294922 C17.11015905 0.36817781 28.00693767 5.95966544 37.83984375 16.2421875 C46.23644517 26.21869913 50.87460636 38.14436624 50.9375 51.125 C50.94144775 51.83253418 50.94539551 52.54006836 50.94946289 53.26904297 C50.89328442 58.34827132 49.99995967 62.58344761 48.3046875 67.38671875 C47.39818477 70.39883226 47.61506522 72.50617828 48.6875 75.4375 C50.62454708 77.33040509 50.62454708 77.33040509 52.6875 78.4375 C52.3575 79.0975 52.0275 79.7575 51.6875 80.4375 C46.0775 80.4375 40.4675 80.4375 34.6875 80.4375 C34.3575 81.0975 34.0275 81.7575 33.6875 82.4375 C33.046875 80.6640625 33.046875 80.6640625 32.6875 78.4375 C33.578125 76.6484375 33.578125 76.6484375 34.9375 74.8125 C41.51383137 64.755659 42.04325562 53.15583305 40.6875 41.4375 C38.88689906 34.31973987 35.51501744 28.56153846 30.82421875 22.9609375 C29.6875 21.4375 29.6875 21.4375 29.6875 19.4375 C29.10484375 19.15777344 28.5221875 18.87804687 27.921875 18.58984375 C25.16752426 17.16933069 22.65019086 15.47762265 20.078125 13.75390625 C10.16350591 8.29438561 -0.8379007 7.7029237 -11.796875 10.24609375 C-21.13268376 13.74097553 -28.81359418 19.88517719 -33.375 28.8125 C-37.30608637 37.62596765 -38.11955214 48.63856363 -34.8125 57.875 C-31.07427589 65.63900392 -25.21877442 72.10555439 -17.28125 75.62109375 C-9.34918589 77.80241138 -0.32336501 77.83684246 7.25 74.4375 C12.93498269 71.05335347 17.06969223 66.5324366 20.125 60.6875 C21.45642362 52.99483021 22.0383097 44.27666753 17.6875 37.4375 C13.5091369 32.81550823 9.10427059 29.92762985 2.85546875 29.03125 C-3.74194706 28.82372971 -7.67301138 29.46020571 -12.7890625 33.734375 C-16.64665384 38.04696429 -16.7895591 42.12248135 -16.70703125 47.734375 C-16.09035812 51.9595018 -14.44043255 53.60746579 -11.3125 56.4375 C-7.80223925 58.19263038 -4.02391787 57.39167658 -0.3125 56.4375 C2.46320579 54.42759852 2.46320579 54.42759852 3.6875 51.4375 C3.54134044 47.71043127 3.34538293 46.09538293 0.6875 43.4375 C-1.30071313 43.03985737 -3.30194339 42.69974651 -5.3125 42.4375 C-4.25 40.875 -4.25 40.875 -2.3125 39.4375 C2.14785162 39.4375 4.13542257 39.96943436 7.5625 42.875 C10.4975505 46.4143256 11.09892113 48.62104717 11.03125 53.2734375 C10.2385411 58.26390037 7.02241416 61.42817466 3.125 64.375 C-2.71991615 66.18161044 -8.91019732 66.72575053 -14.7265625 64.5234375 C-19.54827081 61.72431844 -23.15731807 58.08502652 -24.8828125 52.63671875 C-26.27420688 45.51530934 -26.42598791 38.46436749 -22.875 32 C-19.00591634 26.34376817 -13.79327165 22.59775722 -7.3125 20.4375 C3.47405185 19.58045275 12.07782234 19.80366057 20.671875 27.12890625 C27.09346854 33.70143468 30.86827385 42.26483031 31.3125 51.4375 C30.83188042 61.11313099 26.72231902 69.51491898 20.0625 76.46484375 C11.74825613 83.37058907 1.32658901 86.98541154 -9.4140625 86.75 C-20.6081377 85.54309162 -30.63656086 79.28636389 -37.7421875 70.7265625 C-45.52945028 59.37498044 -47.07798226 46.85708159 -45.3125 33.4375 C-41.8127048 20.6023309 -33.29267052 11.46336537 -22.09765625 4.76171875 C-14.7207031 1.25430344 -8.16179988 -0.09427822 0 0 Z " fill="#38B0DD" transform="translate(101.3125,53.5625)"/>
<path d="M0 0 C19.8 0.495 19.8 0.495 40 1 C40.495 2.98 40.495 2.98 41 5 C39.59375 6.71875 39.59375 6.71875 37.5 8.5 C27.31168439 18.1173417 23.0736698 29.89408008 22.54907227 43.60058594 C22.30930227 57.15653749 25.42856055 66.63186523 32.86328125 78.07421875 C34 80 34 80 34 82 C32.89487061 81.98428955 31.78974121 81.9685791 30.65112305 81.95239258 C26.55305259 81.89811443 22.45501393 81.86365776 18.35668945 81.83520508 C16.58254657 81.82011359 14.80844102 81.79963809 13.03442383 81.77368164 C10.48509513 81.73731359 7.93625941 81.72027762 5.38671875 81.70703125 C4.19594978 81.68380547 4.19594978 81.68380547 2.98112488 81.66011047 C-1.31280019 81.60384566 -1.31280019 81.60384566 -5.02416992 83.51831055 C-5.34619385 84.00726807 -5.66821777 84.49622559 -6 85 C-9.31973919 81.33081458 -10.32913776 77.2805051 -11.625 72.625 C-11.8415625 71.8825 -12.058125 71.14 -12.28125 70.375 C-14.76664717 61.69145185 -15.18268527 53.5708631 -15.1875 44.5625 C-15.19974609 43.36044922 -15.21199219 42.15839844 -15.22460938 40.91992188 C-15.2345721 34.8991158 -15.11157976 29.66704606 -13 24 C-12.37295166 23.91459961 -11.74590332 23.82919922 -11.09985352 23.74121094 C-8.87842434 23.21518709 -8.87842434 23.21518709 -8.04272461 21.31347656 C-7.72573608 20.23791504 -7.72573608 20.23791504 -7.40234375 19.140625 C-7.15806641 18.35429688 -6.91378906 17.56796875 -6.66210938 16.7578125 C-6.42298828 15.93023437 -6.18386719 15.10265625 -5.9375 14.25 C-5.45233284 12.6284864 -4.96157741 11.00863279 -4.46484375 9.390625 C-4.254646 8.66907227 -4.04444824 7.94751953 -3.82788086 7.20410156 C-3 5 -3 5 0 0 Z " fill="#32ACDB" transform="translate(22,52)"/>
<path d="M0 0 C1.70736328 0.56074219 1.70736328 0.56074219 3.44921875 1.1328125 C15.01365836 5.26590216 26.10956859 11.42641835 35 20 C35.495 21.485 35.495 21.485 36 23 C-5.58 23 -47.16 23 -90 23 C-78.2262583 7.30167773 -59.69336049 -0.63664947 -40.51269531 -3.68652344 C-26.57689467 -5.42511341 -13.31108742 -4.41299323 0 0 Z " fill="#7CCBE9" transform="translate(131,8)"/>
<path d="M0 0 C16.47757186 13.90762799 31.80703886 34.10984006 34.34423828 56.24951172 C34.38548828 57.40451172 34.42673828 58.55951172 34.46923828 59.74951172 C34.13923828 58.42951172 33.80923828 57.10951172 33.46923828 55.74951172 C32.53567505 55.62515747 32.53567505 55.62515747 31.58325195 55.49829102 C29.46923828 54.74951172 29.46923828 54.74951172 28.42358398 53.0222168 C28.03819458 51.90689575 28.03819458 51.90689575 27.64501953 50.76904297 C27.34345947 49.94130371 27.04189941 49.11356445 26.73120117 48.26074219 C26.26121704 46.92487061 26.26121704 46.92487061 25.78173828 45.56201172 C20.67394108 31.99189896 13.7868553 21.06712873 3.46923828 10.74951172 C2.77314453 10.05341797 2.07705078 9.35732422 1.35986328 8.64013672 C-7.84394663 -0.02622443 -18.73508189 -5.89771629 -30.53076172 -10.25048828 C-31.32224609 -10.54697266 -32.11373047 -10.84345703 -32.92919922 -11.14892578 C-54.79227276 -18.8968922 -78.99469387 -16.59747727 -99.90625 -7.09106445 C-116.0196723 0.65009386 -128.54396569 12.05835669 -138.53076172 26.74951172 C-139.08376953 27.52423828 -139.63677734 28.29896484 -140.20654297 29.09716797 C-145.38481625 36.89802927 -147.80486377 45.87584393 -150.53076172 54.74951172 C-153.00576172 55.24451172 -153.00576172 55.24451172 -155.53076172 55.74951172 C-153.09630643 34.49589646 -139.75854178 14.54027845 -123.45263672 1.15576172 C-120.53837206 -1.08598033 -117.57923229 -3.19590264 -114.53076172 -5.25048828 C-113.73412109 -5.80220703 -112.93748047 -6.35392578 -112.11669922 -6.92236328 C-104.8036799 -11.66726545 -96.77648435 -14.56732353 -88.53076172 -17.25048828 C-87.48919922 -17.59466797 -86.44763672 -17.93884766 -85.37451172 -18.29345703 C-56.29429601 -26.11427262 -23.21149354 -18.96160605 0 0 Z " fill="#1591C1" transform="translate(164.53076171875,20.25048828125)"/>
<path d="M0 0 C0.66 0.33 1.32 0.66 2 1 C3.45454878 1.07950873 4.9127967 1.09574262 6.36943054 1.07987976 C7.2876207 1.07258347 8.20581085 1.06528717 9.15182495 1.05776978 C10.16221832 1.04474823 11.17261169 1.03172668 12.21362305 1.01831055 C14.41517604 0.99863285 16.6167294 0.97899676 18.81828308 0.95939636 C19.99003775 0.94716726 21.16179241 0.93493816 22.36905479 0.92233849 C28.55776524 0.86182227 34.74665461 0.83102346 40.93554688 0.79492188 C48.81883188 0.74699965 56.70176777 0.69032686 64.5847168 0.60229492 C70.94773497 0.53200865 77.31035264 0.49107685 83.67371559 0.46967506 C86.09905223 0.45608421 88.52435338 0.43166196 90.94946861 0.39618492 C94.34660336 0.3478676 97.74196996 0.33703357 101.1394043 0.3347168 C102.13967651 0.3115741 103.13994873 0.2884314 104.17053223 0.2645874 C110.20388845 0.30861223 113.45367466 1.31011103 117.85056782 5.51557636 C119 7 119 7 119 9 C77.42 9 35.84 9 -7 9 C-1 1 -1 1 0 0 Z " fill="#6BC4E6" transform="translate(48,22)"/>
<path d="M0 0 C3.3 0 6.6 0 10 0 C10.33 0.66 10.66 1.32 11 2 C14.63 2 18.26 2 22 2 C22.495 2.99 22.495 2.99 23 4 C21.22934889 4.64633275 19.45847247 5.2920483 17.6875 5.9375 C16.70136719 6.29714844 15.71523437 6.65679687 14.69921875 7.02734375 C5.63823631 10.29244451 -1.85295258 9.53042009 -10.78515625 6.0703125 C-13 5 -13 5 -15 3 C-10.27685687 2.22887459 -5.78478822 1.90235126 -1 2 C-0.67 1.34 -0.34 0.68 0 0 Z " fill="#4CB7E1" transform="translate(91,131)"/>
<path d="M0 0 C3.16613952 1.4997503 4.57007804 3.13993676 6.375 6.125 C6.47906448 9.45506333 5.11233778 10.40688141 2.8125 12.875 C1.6059375 13.98875 1.6059375 13.98875 0.375 15.125 C-0.75699353 14.2169838 -1.88032363 13.29816174 -3 12.375 C-3.62648437 11.86453125 -4.25296875 11.3540625 -4.8984375 10.828125 C-6.70812318 9.04300519 -7.62617455 7.44550356 -8.625 5.125 C-3.42084352 0.16289731 -3.42084352 0.16289731 0 0 Z " fill="#31486D" transform="translate(156.625,147.875)"/>
<path d="M0 0 C2.64 0.33 5.28 0.66 8 1 C8.6875 3.3125 8.6875 3.3125 9 6 C8 7 7 8 6 9 C6.23043864 11.65466049 6.23043864 11.65466049 7 14 C6.01 14 5.02 14 4 14 C2.74335022 11.09399739 2 9.20395416 2 6 C2.99 5.67 3.98 5.34 5 5 C5.33 4.34 5.66 3.68 6 3 C4.68 3 3.36 3 2 3 C1.34 6.3 0.68 9.6 0 13 C-0.66 13 -1.32 13 -2 13 C-1.85851011 11.3954444 -1.71164314 9.79136233 -1.5625 8.1875 C-1.48128906 7.29417969 -1.40007812 6.40085938 -1.31640625 5.48046875 C-1 3 -1 3 0 0 Z " fill="#31476D" transform="translate(83,166)"/>
<path d="M0 0 C2.97 0 5.94 0 9 0 C9.59732819 2.76264289 10 5.16032769 10 8 C11.43990623 10.17032476 11.43990623 10.17032476 13 12 C10.28324005 11.63287028 8.38936287 11.27255401 6.125 9.6875 C5 8 5 8 5.25 5.9375 C6 4 6 4 7 2 C5.68 2 4.36 2 3 2 C3.33 5.63 3.66 9.26 4 13 C3.34 13 2.68 13 2 13 C1.34 8.71 0.68 4.42 0 0 Z " fill="#30456A" transform="translate(114,167)"/>
<path d="M0 0 C0.66 0.33 1.32 0.66 2 1 C0.98110061 3.27292941 0.19097369 4.83024561 -1.6875 6.5 C-2.120625 6.995 -2.55375 7.49 -3 8 C-2.77242269 10.16299211 -2.77242269 10.16299211 -2 12 C1.43595166 10.47291037 4.11912454 8.40072955 7 6 C7 10 7 10 4.9375 12.8125 C2 15 2 15 -1.6875 15 C-5 14 -5 14 -7 11 C-7 7.11973529 -5.56987909 5.32610221 -2.9375 2.6875 C-1.968125 1.800625 -0.99875 0.91375 0 0 Z " fill="#31496E" transform="translate(50,145)"/>
<path d="M0 0 C-0.33 0.99 -0.66 1.98 -1 3 C-3.0625 3.6875 -3.0625 3.6875 -5 4 C-4.34 4.66 -3.68 5.32 -3 6 C-0.39719432 5.67958603 -0.39719432 5.67958603 2 5 C1.67 5.99 1.34 6.98 1 8 C-1.0625 8.6875 -1.0625 8.6875 -3 9 C-2.67 9.66 -2.34 10.32 -2 11 C-0.02 10.67 1.96 10.34 4 10 C4.33 10.66 4.66 11.32 5 12 C0.545 13.485 0.545 13.485 -4 15 C-8.06391044 6.62588152 -8.06391044 6.62588152 -7.7734375 3.78125 C-7 2 -7 2 -4.5625 0.75 C-2 0 -2 0 0 0 Z " fill="#31486D" transform="translate(134,162)"/>
<path d="M0 0 C2.97 0 5.94 0 9 0 C9 0.99 9 1.98 9 3 C7.02 3 5.04 3 3 3 C3 3.99 3 4.98 3 6 C4.98 6 6.96 6 9 6 C9 6.66 9 7.32 9 8 C6.69 8 4.38 8 2 8 C2 8.99 2 9.98 2 11 C3.98 11 5.96 11 8 11 C8 11.66 8 12.32 8 13 C5.36 13 2.72 13 0 13 C0 8.71 0 4.42 0 0 Z " fill="#2F4267" transform="translate(95,168)"/>
<path d="M0 0 C0.99 0 1.98 0 3 0 C2.690625 0.9075 2.38125 1.815 2.0625 2.75 C1.2727737 5.16563338 0.57050703 7.52780285 0 10 C1.32 10.33 2.64 10.66 4 11 C5.32 8.36 6.64 5.72 8 3 C8.66 3 9.32 3 10 3 C9.49812446 7.31612964 8.86397305 10.64223849 6 14 C1.91399472 14.59587577 0.47351075 14.31567384 -3 12 C-3.65793917 7.17511274 -2.37813717 4.16174005 0 0 Z " fill="#31486D" transform="translate(70,161)"/>
<path d="M0 0 C3.03852705 1.40976705 5.5939595 3.08870228 8.25 5.125 C8.95640625 5.66382813 9.6628125 6.20265625 10.390625 6.7578125 C10.92171875 7.16773438 11.4528125 7.57765625 12 8 C11.67 8.66 11.34 9.32 11 10 C8.36 9.67 5.72 9.34 3 9 C3 10.98 3 12.96 3 15 C2.34 15 1.68 15 1 15 C-0.32558098 10.19476896 -1.36809815 6.03067466 -1 1 C-0.67 0.67 -0.34 0.34 0 0 Z " fill="#31486E" transform="translate(141,157)"/>
<path d="M0 0 C4.875 4.625 4.875 4.625 6 8 C4.0625 7.625 4.0625 7.625 2 7 C1.67 6.34 1.34 5.68 1 5 C0.01 5.495 0.01 5.495 -1 6 C-0.34 7.65 0.32 9.3 1 11 C0.46375 10.649375 -0.0725 10.29875 -0.625 9.9375 C-3.73274763 8.71075751 -5.79431703 9.27143569 -9 10 C-9 9.01 -9 8.02 -9 7 C-7.03125 5.17578125 -7.03125 5.17578125 -4.5 3.3125 C-3.6646875 2.68988281 -2.829375 2.06726563 -1.96875 1.42578125 C-1.3190625 0.95527344 -0.669375 0.48476562 0 0 Z " fill="#31496E" transform="translate(43,136)"/>
<path d="M0 0 C1.96792836 1.96792836 2.85283135 3.46756819 4.0625 5.9375 C4.40410156 6.62714844 4.74570313 7.31679687 5.09765625 8.02734375 C6 10 6 10 7 13 C6.0409375 12.566875 6.0409375 12.566875 5.0625 12.125 C1.11589708 10.6752275 -2.8874607 9.84221938 -7 9 C-6.67 8.34 -6.34 7.68 -6 7 C-4.02 7 -2.04 7 0 7 C-0.185625 6.030625 -0.37125 5.06125 -0.5625 4.0625 C-0.706875 3.051875 -0.85125 2.04125 -1 1 C-0.67 0.67 -0.34 0.34 0 0 Z " fill="#31486E" transform="translate(164,136)"/>
<path d="M0 0 C3.43927579 1.2419607 6.25207819 2.55740284 9 5 C9 5.66 9 6.32 9 7 C7.35 6.67 5.7 6.34 4 6 C3.566875 7.1446875 3.566875 7.1446875 3.125 8.3125 C2 11 2 11 0 14 C-0.99 13.67 -1.98 13.34 -3 13 C-2.319375 11.96875 -1.63875 10.9375 -0.9375 9.875 C0.77423963 6.92600295 1.00995139 6.13683163 0.75 2.5625 C0.5025 1.716875 0.255 0.87125 0 0 Z " fill="#324A70" transform="translate(59,154)"/>
<path d="M0 0 C0.33 1.65 0.66 3.3 1 5 C-0.98 5.99 -0.98 5.99 -3 7 C-5 5.1875 -5 5.1875 -7 3 C-7 2.01 -7 1.02 -7 0 C-4.3333581 -1.33332095 -2.83319697 -0.67102033 0 0 Z " fill="#4CB1D9" transform="translate(159,152)"/>
<path d="M0 0 C0.66 0.33 1.32 0.66 2 1 C-3.28 6.28 -8.56 11.56 -14 17 C-14.66 16.67 -15.32 16.34 -16 16 C-5.62642369 4.29384966 -5.62642369 4.29384966 0 0 Z " fill="#0E6587" transform="translate(44,19)"/>
<path d="M0 0 C2.97 0 5.94 0 9 0 C9 0.99 9 1.98 9 3 C7.02 3 5.04 3 3 3 C2.67 3.99 2.34 4.98 2 6 C1.34 5.67 0.68 5.34 0 5 C0 3.35 0 1.7 0 0 Z " fill="#335075" transform="translate(95,168)"/>
<path d="M0 0 C1.32 0 2.64 0 4 0 C3.34 3.63 2.68 7.26 2 11 C1.67 11 1.34 11 1 11 C0.67 7.37 0.34 3.74 0 0 Z " fill="#4B9EC5" transform="translate(117,169)"/>
</svg>
