<?xml version="1.0" encoding="UTF-8"?>
<svg version="1.1" xmlns="http://www.w3.org/2000/svg" width="200" height="200">
<path d="M0 0 C66 0 132 0 200 0 C200 66 200 132 200 200 C134 200 68 200 0 200 C0 134 0 68 0 0 Z " fill="#04D4B1" transform="translate(0,0)"/>
<path d="M0 0 C25.41 0 50.82 0 77 0 C77 26.07 77 52.14 77 79 C76.67 79 76.34 79 76 79 C75.36850058 68.32089373 74.82708303 57.7016389 75 47 C74.34 47 73.68 47 73 47 C72.74863281 47.86496094 72.49726563 48.72992188 72.23828125 49.62109375 C70.93018015 53.19051789 69.29715669 55.903886 67.1875 59.0625 C66.37190409 60.3009038 65.55822155 61.54056909 64.74609375 62.78125 C64.30507324 63.45414063 63.86405273 64.12703125 63.40966797 64.8203125 C60.79525056 68.86283392 58.2767557 72.96483369 55.75 77.0625 C55.19699219 77.9582373 54.64398438 78.85397461 54.07421875 79.77685547 C52.94122719 81.61241927 51.80857909 83.4481951 50.67626953 85.28417969 C48.54430593 88.73829608 46.40588679 92.18838858 44.26733398 95.63842773 C37.42937067 106.6715254 30.62397223 117.7245775 23.82421875 128.78125 C22.89029297 130.29900024 22.89029297 130.29900024 21.9375 131.84741211 C20.57584775 134.06301387 19.21641083 136.27986805 17.859375 138.49829102 C17.50357864 139.07893311 17.14778229 139.6595752 16.78120422 140.2578125 C15.7897636 141.87588461 14.79950711 143.49468211 13.80932617 145.11352539 C7.51610925 155.1532911 0.72827386 161.81187143 -11 165 C-21.15163602 165.91322249 -30.7032235 165.7450119 -39.1418457 159.38598633 C-45.07258766 154.258708 -49.41513823 148.69226094 -53.75 142.1875 C-54.43247803 141.18501221 -55.11495605 140.18252441 -55.81811523 139.1496582 C-57.21366117 137.09795742 -58.60424442 135.04287195 -59.98974609 132.984375 C-62.44014002 129.34657862 -64.91866853 125.72861347 -67.39990234 122.11181641 C-69.01871786 119.75134092 -70.63285561 117.38772705 -72.24609375 115.0234375 C-74.86693285 111.18776239 -77.52414402 107.37889208 -80.1953125 103.578125 C-84.06771236 98.0461252 -87.90110374 92.48839054 -91.69726562 86.90380859 C-92.88243221 85.1718129 -94.08854258 83.45419549 -95.296875 81.73828125 C-95.94140625 80.79339844 -96.5859375 79.84851563 -97.25 78.875 C-97.81203125 78.06804687 -98.3740625 77.26109375 -98.953125 76.4296875 C-100.33273786 73.22775018 -99.91551305 71.31700959 -99 68 C-97.3125 66.0625 -97.3125 66.0625 -95 65 C-91.90410293 64.86539578 -89.97395981 65.1768981 -87.5625 67.21484375 C-83.55814269 71.66533869 -80.387268 76.79484542 -77.11328125 81.7890625 C-72.50464736 88.79146002 -67.66163002 95.63666588 -62.84375 102.49609375 C-61.68745322 104.14319633 -60.5312047 105.79033279 -59.375 107.4375 C-58.78702637 108.27434326 -58.19905273 109.11118652 -57.59326172 109.97338867 C-54.35046818 114.60091682 -51.14229388 119.24904752 -47.9765625 123.9296875 C-47.31221191 124.91138916 -46.64786133 125.89309082 -45.96337891 126.90454102 C-44.68832132 128.79302782 -43.4169439 130.68400653 -42.14990234 132.57788086 C-35.35118218 143.36321364 -35.35118218 143.36321364 -25 150 C-18.30757153 150.71994306 -12.85524487 150.39604203 -7 147 C-1.79897012 142.55352368 1.39683335 136.92045164 4.9375 131.125 C5.59210205 130.06579346 6.2467041 129.00658691 6.92114258 127.9152832 C11.96897607 119.73188571 16.95907775 111.51284825 21.94360352 103.29077148 C25.9963311 96.61505235 30.13482465 89.99962692 34.32324219 83.40844727 C40.66151455 73.41452111 46.82353666 63.31158893 53.01611328 53.22705078 C56.12699962 48.16678796 59.24934195 43.11364838 62.375 38.0625 C63.18698853 36.74886475 63.18698853 36.74886475 64.01538086 35.40869141 C64.51303955 34.6047998 65.01069824 33.8009082 65.5234375 32.97265625 C65.95575684 32.27406494 66.38807617 31.57547363 66.83349609 30.85571289 C67.8618563 29.21976355 68.92814252 27.60778621 70 26 C69.79415751 20.54517412 68.39309825 17.24137282 65 13 C53.16334668 2.09781931 34.87113379 3.41279195 19.6875 2.375 C17.77144978 2.24007374 15.85543377 2.10466064 13.93945312 1.96875 C9.29334374 1.64022555 4.64682255 1.31827115 0 1 C0 0.67 0 0.34 0 0 Z " fill="#F1FDFC" transform="translate(123,0)"/>
<path d="M0 0 C6.19585872 4.07966754 11.332239 10.26861433 13.21875 17.4609375 C14.42156098 27.38102802 13.13521408 35.27730378 7.21875 43.4609375 C0.67063837 50.23443703 -5.78474208 52.46292836 -15.09375 52.8984375 C-23.60911532 52.73223634 -29.73071846 49.93722633 -35.65625 43.8359375 C-40.10369825 38.27399867 -42.3561747 31.92226498 -43.21875 24.8984375 C-41.81107553 13.83813807 -37.6089345 7.08544193 -28.94140625 -0.0546875 C-20.85700863 -5.07868952 -8.3228998 -3.91176291 0 0 Z " fill="#F3FDFC" transform="translate(116.78125,56.5390625)"/>
<path d="M0 0 C0.33 0 0.66 0 1 0 C1 25.41 1 50.82 1 77 C-24.41 77 -49.82 77 -76 77 C-76 76.67 -76 76.34 -76 76 C-74.82606689 75.91959473 -73.65213379 75.83918945 -72.44262695 75.75634766 C-68.02703098 75.4524459 -63.61196858 75.14130055 -59.19702148 74.828125 C-57.29741698 74.69435683 -55.39767873 74.56247253 -53.49780273 74.43261719 C-29.81175296 74.12472072 -29.81175296 74.12472072 -10.125 63.0625 C-5.26960152 56.06501395 -4.24876385 50.1551452 -3.4375 41.8125 C-3.31528076 40.64098389 -3.19306152 39.46946777 -3.06713867 38.26245117 C-1.77672196 25.53028313 -0.84696791 12.7683833 0 0 Z " fill="#F3FDFC" transform="translate(199,123)"/>
<path d="M0 0 C3.95249948 1.98016311 6.3130275 4.95578468 8 9 C8.85348613 13.86037891 8.55698319 17.80907549 5.75 21.9375 C3.25618836 25.19330964 0.71810399 26.7006988 -3.33203125 27.40625 C-8.19009264 27.58986177 -11.24081579 27.36960482 -15.0625 24.1875 C-17.8020682 21.57685266 -18.89071749 19.52233081 -19.16796875 15.66015625 C-19.17441406 14.80292969 -19.18085937 13.94570312 -19.1875 13.0625 C-19.20167969 12.20785156 -19.21585937 11.35320312 -19.23046875 10.47265625 C-18.85192381 6.41131817 -17.53758775 4.49623485 -14.5625 1.75 C-9.64065878 -0.66774656 -5.38917142 -0.93689904 0 0 Z " fill="#08D3B1" transform="translate(108,68)"/>
<path d="M0 0 C0.33 0 0.66 0 1 0 C1.01458252 0.59087402 1.02916504 1.18174805 1.04418945 1.79052734 C1.37283154 13.89802701 2.0463806 25.90193368 3.4375 37.9375 C3.55971924 39.00726074 3.68193848 40.07702148 3.80786133 41.17919922 C5.1180031 51.98212258 6.27417641 61.27417641 14.25 69.25 C23.24009982 74.97097261 31.91104407 75.94324348 42.3125 76.6875 C43.83260699 76.80790148 45.35262681 76.92940849 46.87255859 77.05200195 C57.90230743 77.92338931 68.94247163 78.60605857 80 79 C80 79.33 80 79.66 80 80 C53.6 80 27.2 80 0 80 C0 53.6 0 27.2 0 0 Z " fill="#F1FEFD" transform="translate(0,120)"/>
<path d="M0 0 C24.75 0 49.5 0 75 0 C75 0.33 75 0.66 75 1 C74.19071045 1.0501123 73.3814209 1.10022461 72.54760742 1.15185547 C64.62645899 1.64738373 56.70832827 2.17534041 48.79150391 2.73535156 C46.49739443 2.89548129 44.20287813 3.05009545 41.90771484 3.19433594 C30.56902711 3.91795149 19.04852843 4.96131729 10.9375 14 C6.98594384 20.11853857 5.3358084 25.23986471 4.4375 32.375 C4.25417114 33.76066162 4.25417114 33.76066162 4.06713867 35.17431641 C2.35506849 49.04849252 1.73307839 63.04650437 1 77 C0.67 77 0.34 77 0 77 C0 51.59 0 26.18 0 0 Z " fill="#F2FEFD" transform="translate(0,0)"/>
<path d="M0 0 C0.98484375 0.46148437 1.9696875 0.92296875 2.984375 1.3984375 C9.76619716 3.93194525 17.0935435 4.0747792 24.25 4.625 C25.77462965 4.75041736 27.29920648 4.87647854 28.82373047 5.00317383 C39.87056429 5.90483432 50.92277776 6.60535695 62 7 C62 7.33 62 7.66 62 8 C56.27084606 8.04956675 50.54181793 8.08579861 44.8125 8.10986328 C42.86488672 8.11989919 40.91728843 8.13353088 38.96972656 8.15087891 C36.16467583 8.17523328 33.35982495 8.18650737 30.5546875 8.1953125 C29.68883026 8.20563507 28.82297302 8.21595764 27.93087769 8.22659302 C23.18972271 8.22746602 19.47197814 7.76660695 15 6 C13.50582351 5.80326676 12.00438654 5.65243615 10.5 5.5625 C6.46557276 5.19387213 3.52249673 4.07736987 0 2 C0 1.34 0 0.68 0 0 Z " fill="#CBFCF9" transform="translate(18,192)"/>
<path d="M0 0 C12.87 0 25.74 0 39 0 C39 0.33 39 0.66 39 1 C38.19071045 1.0501123 37.3814209 1.10022461 36.54760742 1.15185547 C17.3197091 2.32819796 17.3197091 2.32819796 -1.875 3.9375 C-2.5966333 3.9998584 -3.3182666 4.0622168 -4.06176758 4.12646484 C-9.14119591 4.65377454 -13.31499589 6.07673769 -18 8 C-18 7.01 -18 6.02 -18 5 C-16.68 5 -15.36 5 -14 5 C-14 4.34 -14 3.68 -14 3 C-9.38 2.67 -4.76 2.34 0 2 C0 1.34 0 0.68 0 0 Z " fill="#D6FDFB" transform="translate(36,0)"/>
<path d="M0 0 C0 0.66 0 1.32 0 2 C-0.61488281 2.04898438 -1.22976562 2.09796875 -1.86328125 2.1484375 C-2.67152344 2.22320312 -3.47976562 2.29796875 -4.3125 2.375 C-5.51326172 2.47941406 -5.51326172 2.47941406 -6.73828125 2.5859375 C-9.27224441 2.89564426 -9.27224441 2.89564426 -12 5 C-13.9172821 5.24050903 -13.9172821 5.24050903 -16.10424805 5.22705078 C-16.92487228 5.22689972 -17.74549652 5.22674866 -18.59098816 5.22659302 C-19.9129998 5.21110916 -19.9129998 5.21110916 -21.26171875 5.1953125 C-22.16751175 5.1924826 -23.07330475 5.18965271 -24.00654602 5.18673706 C-26.90033158 5.17553964 -29.79380794 5.15043589 -32.6875 5.125 C-34.64908407 5.11496963 -36.610673 5.10584388 -38.57226562 5.09765625 C-43.3816296 5.07560173 -48.19076237 5.04107489 -53 5 C-53 4.67 -53 4.34 -53 4 C-51.78940918 3.91435791 -50.57881836 3.82871582 -49.33154297 3.74047852 C-44.82498831 3.4209115 -40.31870814 3.09760703 -35.8125 2.77319336 C-33.86498137 2.63350681 -31.91739049 2.49482356 -29.96972656 2.35717773 C-27.16451576 2.1587499 -24.35958758 1.95667332 -21.5546875 1.75390625 C-20.68883026 1.6934462 -19.82297302 1.63298615 -18.93087769 1.57069397 C-12.5742252 1.10590136 -6.3789408 -0.15187954 0 0 Z " fill="#D4FDFB" transform="translate(176,195)"/>
<path d="M0 0 C6.625 -0.125 6.625 -0.125 10 1 C11.35996072 1.13353531 12.72457472 1.22323879 14.08984375 1.28125 C14.87423828 1.31863281 15.65863281 1.35601562 16.46679688 1.39453125 C17.28212891 1.42933594 18.09746094 1.46414062 18.9375 1.5 C20.55094484 1.56920256 22.16424039 1.64199857 23.77734375 1.71875 C24.84843384 1.76418945 24.84843384 1.76418945 25.94116211 1.81054688 C28 2 28 2 29.92504883 2.48413086 C32.42667452 3.10607875 34.85310331 3.32109194 37.421875 3.53515625 C38.95908203 3.66567383 38.95908203 3.66567383 40.52734375 3.79882812 C41.59082031 3.88583984 42.65429688 3.97285156 43.75 4.0625 C44.82894531 4.15337891 45.90789062 4.24425781 47.01953125 4.33789062 C49.67945748 4.56151274 52.33959943 4.78210596 55 5 C55 5.33 55 5.66 55 6 C44.44397634 6.17729177 34.05439618 5.79410286 23.54125977 4.828125 C21.27638554 4.6217086 19.01050746 4.43143556 16.74414062 4.2421875 C15.28376989 4.11292781 13.82347966 3.98275459 12.36328125 3.8515625 C11.06688721 3.73635254 9.77049316 3.62114258 8.43481445 3.50244141 C5.29945039 3.04380332 2.85969377 2.32733602 0 1 C0 0.67 0 0.34 0 0 Z " fill="#2ACAAE" transform="translate(21,193)"/>
<path d="M0 0 C0.33 0 0.66 0 1 0 C1.73165829 10.67679141 1.43482604 18.88887131 -5 28 C-7.74228499 31.05818547 -11.07227173 33.69075724 -15 35 C-16.34291094 34.70763193 -17.67871882 34.37829212 -19 34 C-18.11248047 33.56300781 -18.11248047 33.56300781 -17.20703125 33.1171875 C-9.60014285 29.17103659 -5.43517153 25.01540023 -2 17 C-1.39541161 14.05764679 -1.08860899 11.11406985 -0.8125 8.125 C-0.73064453 7.34125 -0.64878906 6.5575 -0.56445312 5.75 C-0.36588325 3.83438471 -0.18148253 1.91730958 0 0 Z " fill="#C9FBF6" transform="translate(196,160)"/>
<path d="M0 0 C0.66 0 1.32 0 2 0 C2 1.32 2 2.64 2 4 C1.34 4 0.68 4 0 4 C-0.19107794 9.63679937 -0.29012767 13.91427603 3.203125 18.62109375 C5.78760877 20.60440412 7.72179074 20.32949837 10.9375 20.25 C11.97777344 20.23453125 13.01804687 20.2190625 14.08984375 20.203125 C16.54509675 20.03175164 18.65197548 19.70157841 21 19 C17.85397096 22.28903036 15.87327974 23.20701649 11.3125 23.4375 C6.27485644 23.40829627 3.865589 22.0248554 0.27734375 18.60546875 C-2.09461514 15.62419932 -2.15997305 12.72358487 -2.1875 9.0625 C-2.20167969 8.20785156 -2.21585937 7.35320312 -2.23046875 6.47265625 C-1.98703556 3.86090697 -1.3178268 2.24499348 0 0 Z " fill="#2DCAAE" transform="translate(91,72)"/>
<path d="M0 0 C0 0.66 0 1.32 0 2 C1.98 2 3.96 2 6 2 C6 2.66 6 3.32 6 4 C7.65 4 9.3 4 11 4 C10.67 4.99 10.34 5.98 10 7 C8.989375 6.505 7.97875 6.01 6.9375 5.5 C-0.6904346 2.60193166 -10.14719622 3.13814977 -18 5 C-18 4.01 -18 3.02 -18 2 C-17.06027344 1.90912109 -17.06027344 1.90912109 -16.1015625 1.81640625 C-14.87566406 1.69072266 -14.87566406 1.69072266 -13.625 1.5625 C-12.81289062 1.48128906 -12.00078125 1.40007813 -11.1640625 1.31640625 C-1.91761364 -0.03551136 -1.91761364 -0.03551136 0 0 Z " fill="#27CFB2" transform="translate(107,51)"/>
<path d="M0 0 C-5.33950438 2.96639132 -10.23364334 3.12249529 -16.26953125 3.09765625 C-16.95053391 3.0962413 -17.63153656 3.09482635 -18.33317566 3.09336853 C-20.49299647 3.08780298 -22.65271089 3.07525703 -24.8125 3.0625 C-26.28320162 3.05748054 -27.75390488 3.05291841 -29.22460938 3.04882812 C-32.8164404 3.03784488 -36.4082098 3.02060422 -40 3 C-40 2.67 -40 2.34 -40 2 C-35.91094494 1.71072724 -31.82159335 1.42610524 -27.73193359 1.14550781 C-26.34512931 1.04973315 -24.9584072 0.95275989 -23.57177734 0.85449219 C-15.70908145 0.29814259 -7.88643761 -0.16924695 0 0 Z " fill="#34D3B9" transform="translate(85,0)"/>
<path d="M0 0 C0.66 0.33 1.32 0.66 2 1 C1.071875 2.2375 1.071875 2.2375 0.125 3.5 C-3.5823485 9.08731599 -4.571089 15.37536756 -4 22 C-3.14046605 25.38348333 -2.11768255 28.69352247 -1 32 C-1.99 32.495 -1.99 32.495 -3 33 C-3.33 31.35 -3.66 29.7 -4 28 C-4.66 28 -5.32 28 -6 28 C-6.05455124 25.33305052 -6.09393392 22.66724502 -6.125 20 C-6.14175781 19.25621094 -6.15851563 18.51242188 -6.17578125 17.74609375 C-6.22146823 12.49209049 -5.58632399 8.02335931 -4 3 C-1.875 1 -1.875 1 0 0 Z " fill="#22CBAC" transform="translate(79,63)"/>
<path d="M0 0 C0.33 0 0.66 0 1 0 C1.02505615 0.55461914 1.0501123 1.10923828 1.07592773 1.68066406 C1.19227927 4.20398843 1.31482754 6.72697536 1.4375 9.25 C1.47681641 10.12269531 1.51613281 10.99539062 1.55664062 11.89453125 C1.59853516 12.73886719 1.64042969 13.58320312 1.68359375 14.453125 C1.72025146 15.22817383 1.75690918 16.00322266 1.79467773 16.80175781 C1.94099457 19.00811604 1.94099457 19.00811604 2.5546875 21.12304688 C3.19344524 23.81535471 2.41776493 25.64999462 1.5625 28.25 C1.27503906 29.14203125 0.98757812 30.0340625 0.69140625 30.953125 C0.46324219 31.62859375 0.23507813 32.3040625 0 33 C-0.33 33 -0.66 33 -1 33 C-1.13379211 21.95471804 -0.76370639 11.01919215 0 0 Z " fill="#28D4B8" transform="translate(1,60)"/>
<path d="M0 0 C4.53676653 3.50511825 7.992823 6.45074595 10 12 C10.4706502 16.35894496 9.33510705 18.66389524 7 22.3125 C6.443125 23.19550781 5.88625 24.07851563 5.3125 24.98828125 C4.879375 25.65214844 4.44625 26.31601562 4 27 C2.72485508 23.17456525 3.47259587 21.66576992 5 18 C6.625 16.125 6.625 16.125 8 15 C5.73395412 8.94516026 5.73395412 8.94516026 1.875 3.875 C1.25625 3.25625 0.6375 2.6375 0 2 C0 1.34 0 0.68 0 0 Z " fill="#27CDAD" transform="translate(184,9)"/>
<path d="M0 0 C-2.83983056 2.83983056 -5.23250958 2.56272564 -9.1875 3 C-15.43788769 3.69794957 -21.34705632 4.40823379 -26.8125 7.6875 C-27.534375 8.120625 -28.25625 8.55375 -29 9 C-29.66 8.67 -30.32 8.34 -31 8 C-29.77422398 7.20309351 -28.54418995 6.41273516 -27.3125 5.625 C-26.28576172 4.96371094 -26.28576172 4.96371094 -25.23828125 4.2890625 C-17.44439844 -0.19956111 -8.79705989 -0.19549022 0 0 Z " fill="#3ACEB5" transform="translate(44,3)"/>
<path d="M0 0 C0.33 0.66 0.66 1.32 1 2 C0.22265625 3.7265625 0.22265625 3.7265625 -0.9375 5.625 C-1.618125 6.73875 -2.29875 7.8525 -3 9 C-2.01 9 -1.02 9 0 9 C-0.62759865 11.92879371 -1.58622659 14.36095629 -3 17 C-3.66 16.67 -4.32 16.34 -5 16 C-5 15.34 -5 14.68 -5 14 C-5.66 13.67 -6.32 13.34 -7 13 C-5.35821735 8.22390502 -2.73453298 4.20617096 0 0 Z " fill="#18D0AF" transform="translate(152,119)"/>
<path d="M0 0 C1.16413981 3.96669863 0.61399222 6.90671854 0 11 C-0.33064059 15.83102644 0.13268885 19.51845324 2 24 C1.55859375 26.140625 1.55859375 26.140625 1 28 C-3.28499601 17.4214161 -3.65180993 10.80327105 0 0 Z " fill="#C4F9F5" transform="translate(77,68)"/>
<path d="M0 0 C1 2 1 2 0.75 3.9375 C-0.112155 6.30842624 -1.19793227 7.27001498 -3 9 C-3.70394612 10.31403276 -4.36345658 11.6520257 -5 13 C-8.48102383 19.82700794 -8.48102383 19.82700794 -12 21 C-10.32508169 16.11963459 -7.63208039 12.00847052 -4.875 7.6875 C-4.40707031 6.94693359 -3.93914062 6.20636719 -3.45703125 5.44335938 C-2.30835804 3.62658032 -1.15467631 1.81296963 0 0 Z " fill="#30CFB1" transform="translate(173,85)"/>
<path d="M0 0 C0.66386719 0.31710938 1.32773438 0.63421875 2.01171875 0.9609375 C5.60924343 2.21184151 9.0439801 2.45190052 12.8125 2.625 C13.85180664 2.68300781 13.85180664 2.68300781 14.91210938 2.7421875 C16.60767015 2.83573568 18.30379712 2.91892364 20 3 C20 2.34 20 1.68 20 1 C21.65 1 23.3 1 25 1 C22.11017827 4.32329498 19.75827681 4.83575056 15.44921875 5.23828125 C8.99687194 5.41168237 5.28342444 4.75710182 0 1 C0 0.67 0 0.34 0 0 Z " fill="#2CCAAE" transform="translate(91,146)"/>
<path d="M0 0 C0 0.66 0 1.32 0 2 C-0.93972656 2.09087891 -0.93972656 2.09087891 -1.8984375 2.18359375 C-3.12433594 2.30927734 -3.12433594 2.30927734 -4.375 2.4375 C-5.18710938 2.51871094 -5.99921875 2.59992188 -6.8359375 2.68359375 C-9.04272805 2.89090114 -9.04272805 2.89090114 -11 4 C-13.7235195 3.91075148 -16.41013311 3.76646668 -19.125 3.5625 C-20.25615234 3.48418945 -20.25615234 3.48418945 -21.41015625 3.40429688 C-23.2737937 3.27454996 -25.13694996 3.13792512 -27 3 C-27 2.67 -27 2.34 -27 2 C-23.62545836 1.66191643 -20.25030319 1.33038682 -16.875 1 C-15.92367187 0.90460938 -14.97234375 0.80921875 -13.9921875 0.7109375 C-9.30899618 0.25562723 -4.7123674 -0.12693246 0 0 Z " fill="#C2FAF4" transform="translate(176,195)"/>
<path d="M0 0 C0.33 0 0.66 0 1 0 C1 5.94 1 11.88 1 18 C0.34 18 -0.32 18 -1 18 C-1 21.63 -1 25.26 -1 29 C-1.33 29 -1.66 29 -2 29 C-2.22867275 19.10355133 -1.87387655 9.77092772 0 0 Z " fill="#1AD7B8" transform="translate(199,105)"/>
<path d="M0 0 C1.98 0.99 1.98 0.99 4 2 C4.05816623 5.41659491 4.09365195 8.83306205 4.125 12.25 C4.15013672 13.70212891 4.15013672 13.70212891 4.17578125 15.18359375 C4.18222656 16.11816406 4.18867188 17.05273438 4.1953125 18.015625 C4.20578613 18.87446289 4.21625977 19.73330078 4.22705078 20.61816406 C3.98293323 23.17903596 3.28990512 24.79511029 2 27 C1.34 27 0.68 27 0 27 C0.33 26.13375 0.66 25.2675 1 24.375 C3.25492856 16.49885667 2.91534079 7.60070991 0 0 Z " fill="#34CCAF" transform="translate(127,68)"/>
<path d="M0 0 C3.20861774 0.13995514 6.41681288 0.28802257 9.625 0.4375 C10.52863281 0.47681641 11.43226563 0.51613281 12.36328125 0.55664062 C16.98216146 0.77578458 21.45153636 1.1008851 26 2 C26 2.33 26 2.66 26 3 C22.97892098 3.0543251 19.95883472 3.09382927 16.9375 3.125 C16.08994141 3.14175781 15.24238281 3.15851562 14.36914062 3.17578125 C9.16581799 3.21596135 4.92530179 2.69745815 0 1 C0 0.67 0 0.34 0 0 Z " fill="#2FCCB1" transform="translate(144,2)"/>
<path d="M0 0 C1.32 0.66 2.64 1.32 4 2 C1.69 5.63 -0.62 9.26 -3 13 C-4 11 -4 11 -3.0625 7.875 C-2.711875 6.92625 -2.36125 5.9775 -2 5 C-2.66 4.67 -3.32 4.34 -4 4 C-2.68 2.68 -1.36 1.36 0 0 Z " fill="#1CCEB0" transform="translate(136,111)"/>
<path d="M0 0 C6.625 -0.125 6.625 -0.125 10 1 C12.83254261 1.26515629 15.66459816 1.44387266 18.50390625 1.62109375 C21 2 21 2 23 4 C20.1033852 3.88569952 17.20821684 3.7589576 14.3125 3.625 C13.49587891 3.5940625 12.67925781 3.563125 11.83789062 3.53125 C7.49873367 3.32044076 3.95716543 2.98261241 0 1 C0 0.67 0 0.34 0 0 Z " fill="#37CDB2" transform="translate(21,193)"/>
<path d="M0 0 C0.33 0 0.66 0 1 0 C1.68428328 6.43226286 -0.22504788 10.77886904 -4 16 C-4.99 16.66 -5.98 17.32 -7 18 C-7 16.02 -7 14.04 -7 12 C-6.01 11.67 -5.02 11.34 -4 11 C-3.67 10.01 -3.34 9.02 -3 8 C-2.34 8 -1.68 8 -1 8 C-0.67 5.36 -0.34 2.72 0 0 Z " fill="#25CBAE" transform="translate(194,170)"/>
<path d="M0 0 C1.2077558 3.62326739 0.54311128 4.64146369 -1 8 C-1.66 8 -2.32 8 -3 8 C-3.66 8.825 -4.32 9.65 -5 10.5 C-5.66 11.325 -6.32 12.15 -7 13 C-7.66 13 -8.32 13 -9 13 C-9 13.66 -9 14.32 -9 15 C-10.32 14.67 -11.64 14.34 -13 14 C-11.453125 13.0409375 -11.453125 13.0409375 -9.875 12.0625 C-5.36319646 8.8831028 -2.78655775 4.68509161 0 0 Z " fill="#26CEAE" transform="translate(135,146)"/>
<path d="M0 0 C0.99 0.66 1.98 1.32 3 2 C1.90931332 5.77545388 1.0916909 8.47043472 -2 11 C-2.25 3.375 -2.25 3.375 0 0 Z " fill="#16CFAE" transform="translate(164,65)"/>
<path d="M0 0 C1.95486328 0.00580078 1.95486328 0.00580078 3.94921875 0.01171875 C7.3125 0.3125 7.3125 0.3125 10.3125 2.3125 C9.22710937 2.28929687 8.14171875 2.26609375 7.0234375 2.2421875 C5.57813193 2.2234173 4.13281885 2.20521844 2.6875 2.1875 C1.61822266 2.16236328 1.61822266 2.16236328 0.52734375 2.13671875 C-3.98766108 2.09529669 -7.39148347 2.77728689 -11.6875 4.3125 C-12.3475 3.9825 -13.0075 3.6525 -13.6875 3.3125 C-8.94921161 0.52829643 -5.47073852 -0.07076577 0 0 Z " fill="#D0FCFA" transform="translate(101.6875,53.6875)"/>
<path d="M0 0 C0.66 0 1.32 0 2 0 C2 0.66 2 1.32 2 2 C2.99 2.33 3.98 2.66 5 3 C5.309375 3.825 5.61875 4.65 5.9375 5.5 C6.288125 6.325 6.63875 7.15 7 8 C9.04105639 8.88693303 9.04105639 8.88693303 11 9 C10.34 9 9.68 9 9 9 C8.67 9.99 8.34 10.98 8 12 C6.66382103 10.18959679 5.33112616 8.3766216 4 6.5625 C3.2575 5.55316406 2.515 4.54382813 1.75 3.50390625 C0 1 0 1 0 0 Z " fill="#23CEB1" transform="translate(56,97)"/>
<path d="M0 0 C3.26008643 3.16952847 6.22237877 6.39937989 9 10 C6.125 9.6875 6.125 9.6875 3 9 C1 6 1 6 1 3 C0.67 2.01 0.34 1.02 0 0 Z " fill="#24CDB0" transform="translate(74,149)"/>
<path d="M0 0 C0.625 1.875 0.625 1.875 1 4 C0.34 4.66 -0.32 5.32 -1 6 C-1.28875 6.825 -1.5775 7.65 -1.875 8.5 C-3 11 -3 11 -5.125 12.3125 C-6.053125 12.6528125 -6.053125 12.6528125 -7 13 C-5.35821735 8.22390502 -2.73453298 4.20617096 0 0 Z " fill="#D2FDF9" transform="translate(136,118)"/>
<path d="M0 0 C-0.56371414 3.26954202 -1.49962266 4.82575883 -4 7 C-4 6.01 -4 5.02 -4 4 C-4.66 3.67 -5.32 3.34 -6 3 C-6 2.01 -6 1.02 -6 0 C-3.50907189 -1.24546405 -2.58919267 -0.7767578 0 0 Z " fill="#13D1B0" transform="translate(152,91)"/>
<path d="M0 0 C3.04516202 2.83332467 5.16868601 5.65500311 7.25 9.25 C8.03117187 10.58804688 8.03117187 10.58804688 8.828125 11.953125 C9.21484375 12.62859375 9.6015625 13.3040625 10 14 C5.99352249 12.6645075 5.24255364 10.47234113 3 7 C2.34 6.67 1.68 6.34 1 6 C0.375 2.9375 0.375 2.9375 0 0 Z " fill="#30CCB0" transform="translate(50,114)"/>
<path d="M0 0 C0.66 0 1.32 0 2 0 C2 2.97 2 5.94 2 9 C1.67 7.68 1.34 6.36 1 5 C0.34 5 -0.32 5 -1 5 C-1.66 6.32 -2.32 7.64 -3 9 C-3 5.30581799 -1.71820705 3.22163822 0 0 Z " fill="#41CCB2" transform="translate(196,47)"/>
<path d="M0 0 C5.28 0 10.56 0 16 0 C16 0.33 16 0.66 16 1 C15.26394531 1.06058594 14.52789062 1.12117188 13.76953125 1.18359375 C12.79371094 1.26738281 11.81789063 1.35117187 10.8125 1.4375 C9.84957031 1.51871094 8.88664062 1.59992187 7.89453125 1.68359375 C5.21350398 1.97666151 2.6337014 2.42703754 0 3 C0 2.01 0 1.02 0 0 Z " fill="#36D5BA" transform="translate(89,53)"/>
<path d="M0 0 C0.33 0.66 0.66 1.32 1 2 C0.02616054 3.68208635 -0.97695052 5.34738161 -2 7 C-2.2165625 8.0828125 -2.2165625 8.0828125 -2.4375 9.1875 C-3 11 -3 11 -5.0625 12.25 C-5.701875 12.4975 -6.34125 12.745 -7 13 C-5.35821735 8.22390502 -2.73453298 4.20617096 0 0 Z " fill="#33CEB0" transform="translate(160,106)"/>
<path d="M0 0 C0.33 0.99 0.66 1.98 1 3 C-2.20336822 5.83374881 -4.78087253 6.5205537 -9 7 C-6.03716687 4.61327331 -3.05729491 2.2646629 0 0 Z " fill="#24CDAC" transform="translate(122,101)"/>
<path d="M0 0 C0.33 0.66 0.66 1.32 1 2 C0.67 2.99 0.34 3.98 0 5 C0.99 5 1.98 5 3 5 C3 6.65 3 8.3 3 10 C-1.875 5.375 -1.875 5.375 -3 2 C-2.01 1.34 -1.02 0.68 0 0 Z " fill="#1FCEAE" transform="translate(53,86)"/>
<path d="M0 0 C0 0.33 0 0.66 0 1 C-1.051875 1.268125 -2.10375 1.53625 -3.1875 1.8125 C-6.951236 2.8201548 -6.951236 2.8201548 -9.8125 4.6875 C-10.534375 5.120625 -11.25625 5.55375 -12 6 C-12.66 5.67 -13.32 5.34 -14 5 C-5.92255125 -0.74031891 -5.92255125 -0.74031891 0 0 Z " fill="#29CBAC" transform="translate(27,6)"/>
<path d="M0 0 C2.6486859 3.19668988 4.93992341 6.39486597 7 10 C6.01 10.495 6.01 10.495 5 11 C4.731875 10.38125 4.46375 9.7625 4.1875 9.125 C3.04443152 6.7004767 3.04443152 6.7004767 0 5 C-0.1875 2.375 -0.1875 2.375 0 0 Z " fill="#2ECDB0" transform="translate(60,128)"/>
<path d="M0 0 C0.66 0 1.32 0 2 0 C0.74194623 4.50802601 -0.90407165 7.4912812 -4 11 C-3.67 8.69 -3.34 6.38 -3 4 C-2.34 4 -1.68 4 -1 4 C-0.67 2.68 -0.34 1.36 0 0 Z " fill="#CFFCF8" transform="translate(194,47)"/>
<path d="M0 0 C3.39417765 3.12621626 5.6062718 5.56541027 7 10 C6.34 10 5.68 10 5 10 C3.98133771 8.34467377 2.98189187 6.67739862 2 5 C1.34 4.67 0.68 4.34 0 4 C0 2.68 0 1.36 0 0 Z " fill="#31CDB2" transform="translate(67,139)"/>
<path d="M0 0 C0.33 0.66 0.66 1.32 1 2 C-0.65909182 6.10406925 -2.21704034 8.65195608 -6 11 C-4.54955729 6.89041233 -2.48889248 3.56741255 0 0 Z " fill="#30CDB1" transform="translate(144,132)"/>
<path d="M0 0 C1.98 0.99 1.98 0.99 4 2 C4 4.97 4 7.94 4 11 C3.67 11 3.34 11 3 11 C2.01 7.37 1.02 3.74 0 0 Z " fill="#23CBAB" transform="translate(127,68)"/>
<path d="M0 0 C1.73662334 3.22515763 2.8905928 6.51329166 4 10 C3.01 10.495 3.01 10.495 2 11 C1.67 9.35 1.34 7.7 1 6 C0.34 6 -0.32 6 -1 6 C-0.67 4.02 -0.34 2.04 0 0 Z " fill="#2ECEB2" transform="translate(74,85)"/>
<path d="M0 0 C0.99 0 1.98 0 3 0 C1.8141763 3.37503669 0.72426311 5.64722731 -2 8 C-2 6.68 -2 5.36 -2 4 C-1.34 4 -0.68 4 0 4 C0 2.68 0 1.36 0 0 Z " fill="#26CCAE" transform="translate(173,53)"/>
<path d="M0 0 C1 2 1 2 1 6 C-0.65 6.66 -2.3 7.32 -4 8 C-2.87548273 5.0280615 -1.77706209 2.66559313 0 0 Z " fill="#D8FCFA" transform="translate(179,49)"/>
<path d="M0 0 C0.99 0 1.98 0 3 0 C3 0.99 3 1.98 3 3 C4.32 3 5.64 3 7 3 C7 3.66 7 4.32 7 5 C6.34 5 5.68 5 5 5 C4.67 5.66 4.34 6.32 4 7 C2.02 3.535 2.02 3.535 0 0 Z " fill="#20CEAE" transform="translate(38,71)"/>
<path d="M0 0 C0.66 0 1.32 0 2 0 C0.8141763 3.37503669 -0.27573689 5.64722731 -3 8 C-3 6.35 -3 4.7 -3 3 C-2.01 3 -1.02 3 0 3 C0 2.01 0 1.02 0 0 Z " fill="#2ACDAE" transform="translate(179,45)"/>
</svg>
